<svg xmlns="http://www.w3.org/2000/svg" viewBox="0 0 200 200" role="img" aria-label="Home Realtime Assistant icon">
  <defs>
    <linearGradient id="g" x1="0" y1="0" x2="1" y2="1">
      <stop stop-color="#06b6d4" offset="0%"/>
      <stop stop-color="#0ea5e9" offset="100%"/>
    </linearGradient>
  </defs>
  <rect width="200" height="200" rx="28" fill="#0f172a"/>
  <circle cx="100" cy="100" r="64" fill="url(#g)"/>
  <path d="M100 60c-18 0-32 14-32 32v22a14 14 0 0 0 14 14h8v-12h-8a2 2 0 0 1-2-2v-22a20 20 0 0 1 40 0v22a2 2 0 0 1-2 2h-8v12h8a14 14 0 0 0 14-14v-22c0-18-14-32-32-32Z" fill="#0b1120" opacity="0.9"/>
  <circle cx="100" cy="112" r="8" fill="#0b1120"/>
  <path d="M94 132h12v12c0 3-2.7 5.5-6 5.5s-6-2.5-6-5.5z" fill="#0b1120" opacity="0.9"/>
</svg>
